<svg width="614" height="195" viewBox="0 0 614 195" fill="none" xmlns="http://www.w3.org/2000/svg">
<path d="M88.9672 167C70.4175 167 54.1849 163.78 41.0046 156.879C27.8246 149.978 17.6548 140.317 10.4952 127.896C3.49841 115.321 0 100.522 0 83.5C0 70.7716 1.95258 59.3474 5.8578 49.2261C9.9257 38.9518 15.7835 30.2106 23.4312 23.0027C31.0789 15.6418 40.3539 9.96785 51.2558 5.98072C62.3205 1.99354 74.7686 0 88.5991 0C96.2996 0.46069 102.079 0.9141 111.698 3.22483C121.316 5.53555 135.162 10.1352 135.162 10.1352C135.162 10.1352 145.671 14.051 149.582 15.3345C153.004 16.5848 155.693 17.4753 155.693 17.9669C155.693 19.3236 153.407 31.5139 153.248 32.709C153.09 33.904 151.782 41.4621 150.804 46.2993C148.12 46.2993 134.241 43.2454 121.55 39.3346C116.138 37.6678 112.031 36.1144 105.685 34.2744C99.3387 32.4339 95.3518 31.5139 89.8197 31.5139C78.9178 31.5139 69.7238 33.5843 62.2394 37.7245C54.9167 41.7118 49.3846 47.539 45.6421 55.2067C41.8996 62.8745 40.0284 72.3057 40.0284 83.5C40.0284 94.5414 41.8996 103.973 45.6421 111.794C49.3846 119.614 54.9167 125.596 62.2394 129.736C69.7238 133.723 78.7985 135.443 89.7004 135.443C94.9074 135.443 99.8265 136.944 105.196 135.716C110.81 137.557 118.946 138.323 123.99 135.716C128.872 135.716 133.021 135.716 136.438 135.716C139.855 136.177 141.563 135.716 145.225 135.716C147.503 137.864 144.736 134.95 145.225 138.017C145.875 141.084 145.55 144.151 144.249 147.218C142.947 150.285 140.506 152.892 136.926 155.039C130.906 158.873 123.502 161.863 114.715 164.01C105.929 166.157 97.5911 167 88.9672 167Z" fill="#BF9B6F"/>
<path d="M170.113 135.443H85.5453V166.986L169.624 167L170.113 166.038V135.443Z" fill="#BF9B6F"/>
<path d="M169.624 166.972L153.004 135.443H186L169.624 166.972Z" fill="#BF9B6F"/>
<path d="M134.937 151.856H143.956V146.945H134.937V142.639H150.209V137.728H129.726V164.927H134.937V151.856ZM181.456 137.728H175.724L168.349 152.461L161.013 137.728H155.281L165.503 158.203L162.136 164.927H167.908L181.456 137.728Z" fill="#BF9B6F"/>
<path d="M134.937 151.856V150.935H133.959V151.856H134.937ZM143.956 151.856V152.778H144.933V151.856H143.956ZM143.956 146.945H144.933V146.024H143.956V146.945ZM134.937 146.945H133.959V147.867H134.937V146.945ZM134.937 142.639V141.717H133.959V142.639H134.937ZM150.209 142.639V143.56H151.186V142.639H150.209ZM150.209 137.728H151.186V136.806H150.209V137.728ZM129.726 137.728V136.806H128.748V137.728H129.726ZM129.726 164.927H128.748V165.848H129.726V164.927ZM134.937 164.927V165.848H135.914V164.927H134.937ZM134.937 152.778H143.956V150.935H134.937V152.778ZM144.933 151.856V146.945H142.978V151.856H144.933ZM143.956 146.024H134.937V147.867H143.956V146.024ZM135.914 146.945V142.639H133.959V146.945H135.914ZM134.937 143.56H150.209V141.717H134.937V143.56ZM151.186 142.639V137.728H149.231V142.639H151.186ZM150.209 136.806H129.726V138.649H150.209V136.806ZM128.748 137.728V164.927H130.703V137.728H128.748ZM129.726 165.848H134.937V164.006H129.726V165.848ZM135.914 164.927V151.856H133.959V164.927H135.914ZM181.456 137.728L182.341 138.119L182.995 136.806H181.456V137.728ZM175.724 137.728V136.806H175.104L174.84 137.335L175.724 137.728ZM168.349 152.461L167.464 152.852L168.346 154.625L169.233 152.854L168.349 152.461ZM161.013 137.728L161.898 137.336L161.635 136.806H161.013V137.728ZM155.281 137.728V136.806H153.741L154.397 138.12L155.281 137.728ZM165.503 158.203L166.387 158.596L166.584 158.203L166.388 157.811L165.503 158.203ZM162.136 164.927L161.251 164.533L160.594 165.848H162.136V164.927ZM167.908 164.927V165.848H168.529L168.793 165.318L167.908 164.927ZM181.456 136.806H175.724V138.649H181.456V136.806ZM174.84 137.335L167.465 152.068L169.233 152.854L176.609 138.121L174.84 137.335ZM169.234 152.069L161.898 137.336L160.128 138.119L167.464 152.852L169.234 152.069ZM161.013 136.806H155.281V138.649H161.013V136.806ZM154.397 138.12L164.618 158.595L166.388 157.811L156.166 137.336L154.397 138.12ZM164.619 157.809L161.251 164.533L163.02 165.32L166.387 158.596L164.619 157.809ZM162.136 165.848H167.908V164.006H162.136V165.848ZM168.793 165.318L182.341 138.119L180.571 137.336L167.023 164.535L168.793 165.318Z" fill="white"/>
<path d="M279.76 42.784V32.224C276.176 30.176 272.08 28.96 267.664 28.96C254.416 28.96 243.728 39.648 243.728 53.024C243.728 66.272 254.416 76.96 267.664 76.96C272.08 76.96 276.176 75.808 279.76 73.76V63.072C276.816 66.528 272.464 68.64 267.664 68.64C258.896 68.64 251.728 61.792 251.728 53.024C251.728 44.384 258.896 36.896 267.664 36.896C272.464 36.896 276.816 39.264 279.76 42.784ZM286.279 76H294.983L297.159 69.6H309.255L311.495 76H320.199L307.591 38.88H298.887L286.279 76ZM303.239 51.296L306.439 61.28H300.039L303.239 51.296ZM328.52 47.2V76H336.84V47.2H347.208V38.88H318.152V47.2H328.52ZM367.758 21.472L364.558 32.48H371.406L376.526 21.472H367.758ZM364.75 38.88H373.454L386.062 76H377.358L375.118 69.6H363.022L360.846 76H352.142L364.75 38.88ZM365.902 61.28H372.302L369.102 51.296L365.902 61.28ZM403.628 67.68V38.88H395.308V76H416.556V67.68H403.628ZM421.722 57.44C421.722 68.256 430.426 76.96 441.242 76.96C451.994 76.96 460.762 68.256 460.762 57.44C460.762 46.688 451.994 37.92 441.242 37.92C430.426 37.92 421.722 46.688 421.722 57.44ZM430.042 57.44C430.042 51.168 435.034 46.24 441.242 46.24C447.514 46.24 452.442 51.168 452.442 57.44C452.442 63.648 447.514 68.64 441.242 68.64C435.034 68.64 430.042 63.648 430.042 57.44ZM495.156 53.024H481.524V61.408H486.836V68.384C485.94 68.576 484.98 68.64 484.02 68.64C475.38 68.64 474.036 61.408 474.036 57.44C474.036 53.472 475.38 46.24 484.02 46.24C486.388 46.24 488.436 46.88 490.164 47.904V38.88C488.244 38.24 486.196 37.92 484.02 37.92C471.54 37.92 465.716 48.032 465.716 57.44C465.716 66.848 471.54 76.96 484.02 76.96C488.18 76.96 491.764 75.872 495.156 73.376V53.024ZM500.154 57.44C500.154 68.256 508.858 76.96 519.674 76.96C530.426 76.96 539.194 68.256 539.194 57.44C539.194 46.688 530.426 37.92 519.674 37.92C508.858 37.92 500.154 46.688 500.154 57.44ZM508.474 57.44C508.474 51.168 513.466 46.24 519.674 46.24C525.946 46.24 530.874 51.168 530.874 57.44C530.874 63.648 525.946 68.64 519.674 68.64C513.466 68.64 508.474 63.648 508.474 57.44Z" fill="#BF9B6F"/>
<path d="M244.88 119.92V128.24H254.608V157.68H244.88V166H272.656V157.68H262.928V128.24H272.656V119.92H244.88ZM314.731 147.568V166H323.051V128.88H315.179L302.059 154.672L288.875 128.88H281.003V166H289.323V147.568L298.475 166H305.579L314.731 147.568ZM330.479 147.44C330.479 158.256 339.183 166.96 349.999 166.96C360.751 166.96 369.519 158.256 369.519 147.44C369.519 136.688 360.751 127.92 349.999 127.92C339.183 127.92 330.479 136.688 330.479 147.44ZM338.799 147.44C338.799 141.168 343.791 136.24 349.999 136.24C356.271 136.24 361.199 141.168 361.199 147.44C361.199 153.648 356.271 158.64 349.999 158.64C343.791 158.64 338.799 153.648 338.799 147.44ZM407.975 140.272C407.975 132.72 401.703 128.88 394.343 128.88H376.295V166H398.375C405.735 166 412.007 162.16 412.007 154.608C412.007 149.936 409.575 146.864 406.823 145.328C407.143 144.688 407.975 143.024 407.975 140.272ZM400.935 151.536C402.599 151.536 404.007 152.944 404.007 154.608C404.007 156.272 402.599 157.68 400.935 157.68H384.615V151.536H400.935ZM396.903 137.2C398.567 137.2 399.975 138.544 399.975 140.272C399.975 141.936 398.567 143.216 396.903 143.216H384.615V137.2H396.903ZM427.738 128.88H419.418V166H427.738V128.88ZM444.298 157.68V128.88H435.978V166H457.226V157.68H444.298ZM471.608 128.88H463.288V166H471.608V128.88ZM493.608 111.472L490.407 122.48H497.255L502.375 111.472H493.608ZM490.599 128.88H499.303L511.911 166H503.208L500.968 159.6H488.871L486.695 166H477.991L490.599 128.88ZM491.751 151.28H498.152L494.951 141.296L491.751 151.28ZM521.157 128.88V166H529.477V153.584H536.517L542.725 166H552.197L545.221 152.048C549.061 149.936 551.621 145.904 551.621 141.232C551.621 134.384 546.117 128.88 539.205 128.88H521.157ZM539.589 137.2C541.765 137.2 543.557 138.992 543.557 141.168C543.557 143.408 541.765 145.136 539.589 145.136H529.477V137.2H539.589ZM565.6 128.88H557.28V166H565.6V128.88ZM572.944 147.44C572.944 158.256 581.648 166.96 592.464 166.96C603.216 166.96 611.984 158.256 611.984 147.44C611.984 136.688 603.216 127.92 592.464 127.92C581.648 127.92 572.944 136.688 572.944 147.44ZM581.264 147.44C581.264 141.168 586.256 136.24 592.464 136.24C598.736 136.24 603.664 141.168 603.664 147.44C603.664 153.648 598.736 158.64 592.464 158.64C586.256 158.64 581.264 153.648 581.264 147.44Z" fill="#011126" fill-opacity="0.97"/>
<line x1="206.5" x2="206.5" y2="180" stroke="black"/>
</svg>
