<svg width="208" height="198" viewBox="0 0 208 198" fill="none" xmlns="http://www.w3.org/2000/svg">
<path d="M99.4097 198C78.6827 198 60.5449 194.182 45.8175 186C31.0905 177.819 19.727 166.364 11.7271 151.637C3.90904 136.728 0 119.182 0 99C0 83.9088 2.18177 70.364 6.54536 58.3638C11.0907 46.1823 17.6361 35.8186 26.1814 27.2727C34.7268 18.5454 45.0905 11.8182 57.272 7.09091C69.6354 2.3636 83.5445 0 98.9984 0C107.603 0.546207 114.061 1.08378 124.808 3.82345C135.556 6.56311 151.026 12.0166 151.026 12.0166C151.026 12.0166 162.77 16.6593 167.139 18.181C170.963 19.6634 173.967 20.7193 173.967 21.3021C173.967 22.9106 171.413 37.3638 171.236 38.7807C171.059 40.1976 169.597 49.1586 168.505 54.8938C165.505 54.8938 149.998 51.273 135.817 46.6362C129.77 44.6601 125.18 42.8182 118.089 40.6367C110.999 38.4546 106.544 37.3638 100.362 37.3638C88.1807 37.3638 77.9077 39.8185 69.5447 44.7272C61.3625 49.4547 55.1811 56.3636 50.9993 65.4547C46.8176 74.5458 44.7267 85.7277 44.7267 99C44.7267 112.091 46.8176 123.273 50.9993 132.546C55.1811 141.818 61.3625 148.91 69.5447 153.818C77.9077 158.546 88.0475 160.585 100.229 160.585C106.047 160.585 111.544 162.364 117.544 160.909C123.816 163.091 132.907 164 138.544 160.909C143.998 160.909 148.634 160.909 152.452 160.909C156.27 161.455 158.179 160.909 162.27 160.909C164.816 163.455 161.725 160 162.27 163.636C162.997 167.273 162.634 170.909 161.18 174.546C159.725 178.183 156.998 181.273 152.998 183.818C146.271 188.364 137.998 191.909 128.18 194.455C118.362 197 109.046 198 99.4097 198Z" fill="#BF9B6F"/>
<path d="M190.08 160.585H95.5862V197.984L189.534 198L190.08 196.859V160.585Z" fill="#BF9B6F"/>
<path d="M189.534 197.967L170.963 160.585H207.832L189.534 197.967Z" fill="#BF9B6F"/>
<path d="M150.775 180.045H160.852V174.223H150.775V169.117H167.84V163.294H144.952V195.542H150.775V180.045ZM202.755 163.294H196.35L188.109 180.762L179.912 163.294H173.508L184.929 187.57L181.166 195.542H187.616L202.755 163.294Z" fill="#BF9B6F"/>
<path d="M150.775 180.045V178.953H149.683V180.045H150.775ZM160.852 180.045V181.137H161.945V180.045H160.852ZM160.852 174.223H161.945V173.13H160.852V174.223ZM150.775 174.223H149.683V175.315H150.775V174.223ZM150.775 169.117V168.024H149.683V169.117H150.775ZM167.84 169.117V170.209H168.932V169.117H167.84ZM167.84 163.294H168.932V162.202H167.84V163.294ZM144.952 163.294V162.202H143.86V163.294H144.952ZM144.952 195.542H143.86V196.634H144.952V195.542ZM150.775 195.542V196.634H151.867V195.542H150.775ZM150.775 181.137H160.852V178.953H150.775V181.137ZM161.945 180.045V174.223H159.76V180.045H161.945ZM160.852 173.13H150.775V175.315H160.852V173.13ZM151.867 174.223V169.117H149.683V174.223H151.867ZM150.775 170.209H167.84V168.024H150.775V170.209ZM168.932 169.117V163.294H166.747V169.117H168.932ZM167.84 162.202H144.952V164.386H167.84V162.202ZM143.86 163.294V195.542H146.045V163.294H143.86ZM144.952 196.634H150.775V194.45H144.952V196.634ZM151.867 195.542V180.045H149.683V195.542H151.867ZM202.755 163.294L203.743 163.758L204.474 162.202H202.755V163.294ZM196.35 163.294V162.202H195.657L195.362 162.828L196.35 163.294ZM188.109 180.762L187.12 181.226L188.106 183.328L189.097 181.228L188.109 180.762ZM179.912 163.294L180.901 162.83L180.607 162.202H179.912V163.294ZM173.508 163.294V162.202H171.786L172.519 163.759L173.508 163.294ZM184.929 187.57L185.917 188.036L186.136 187.57L185.917 187.105L184.929 187.57ZM181.166 195.542L180.178 195.076L179.443 196.634H181.166V195.542ZM187.616 195.542V196.634H188.31L188.605 196.006L187.616 195.542ZM202.755 162.202H196.35V164.386H202.755V162.202ZM195.362 162.828L187.121 180.296L189.097 181.228L197.338 163.76L195.362 162.828ZM189.097 180.297L180.901 162.83L178.923 163.758L187.12 181.226L189.097 180.297ZM179.912 162.202H173.508V164.386H179.912V162.202ZM172.519 163.759L183.94 188.034L185.917 187.105L174.496 162.829L172.519 163.759ZM183.941 187.103L180.178 195.076L182.155 196.009L185.917 188.036L183.941 187.103ZM181.166 196.634H187.616V194.45H181.166V196.634ZM188.605 196.006L203.743 163.758L201.766 162.83L186.627 195.078L188.605 196.006Z" fill="white"/>
</svg>
